<svg width="25" height="25" viewBox="0 0 25 25" fill="none" xmlns="http://www.w3.org/2000/svg">
<mask id="mask0_93_7" style="mask-type:alpha" maskUnits="userSpaceOnUse" x="0" y="0" width="25" height="25">
<rect x="0.936676" y="0.599304" width="24" height="24" fill="#D9D9D9"/>
</mask>
<g mask="url(#mask0_93_7)">
<path d="M5.93668 19.5993H7.36168L17.1367 9.8243L15.7117 8.3993L5.93668 18.1743V19.5993ZM3.93668 21.5993V17.3493L17.1367 4.1743C17.3367 3.99097 17.5575 3.8493 17.7992 3.7493C18.0408 3.6493 18.295 3.5993 18.5617 3.5993C18.8283 3.5993 19.0867 3.6493 19.3367 3.7493C19.5867 3.8493 19.8033 3.9993 19.9867 4.1993L21.3617 5.5993C21.5617 5.78264 21.7075 5.9993 21.7992 6.2493C21.8908 6.4993 21.9367 6.7493 21.9367 6.9993C21.9367 7.26597 21.8908 7.52014 21.7992 7.7618C21.7075 8.00347 21.5617 8.2243 21.3617 8.4243L8.18668 21.5993H3.93668ZM16.4117 9.1243L15.7117 8.3993L17.1367 9.8243L16.4117 9.1243Z" fill="#1C1B1F"/>
</g>
</svg>
